<svg width="32" height="34" viewBox="0 0 32 34" fill="none" xmlns="http://www.w3.org/2000/svg">
<path d="M16 0C20.3472 0 20.8896 0.0169999 22.5952 0.102C24.2992 0.187 25.4592 0.4709 26.48 0.8925C27.536 1.3243 28.4256 1.9091 29.3152 2.8526C30.1288 3.70242 30.7583 4.7304 31.16 5.865C31.5552 6.9479 31.824 8.1821 31.904 9.9926C31.9792 11.8048 32 12.3811 32 17C32 21.6189 31.984 22.1952 31.904 24.0074C31.824 25.8179 31.5552 27.0504 31.16 28.135C30.7595 29.2702 30.1298 30.2985 29.3152 31.1474C28.5151 32.0115 27.5477 32.6804 26.48 33.1075C25.4608 33.5274 24.2992 33.813 22.5952 33.898C20.8896 33.9779 20.3472 34 16 34C11.6528 34 11.1104 33.983 9.4048 33.898C7.7008 33.813 6.5408 33.5274 5.52 33.1075C4.45172 32.6816 3.48404 32.0126 2.6848 31.1474C1.87105 30.2977 1.24149 29.2697 0.84 28.135C0.4432 27.0521 0.176 25.8179 0.0959999 24.0074C0.0207999 22.1952 0 21.6189 0 17C0 12.3811 0.0159999 11.8048 0.0959999 9.9926C0.176 8.1804 0.4432 6.9496 0.84 5.865C1.24038 4.7297 1.87009 3.70145 2.6848 2.8526C3.48427 1.98769 4.45189 1.31874 5.52 0.8925C6.5408 0.4709 7.6992 0.187 9.4048 0.102C11.1104 0.0220999 11.6528 0 16 0ZM16 8.5C13.8783 8.5 11.8434 9.39553 10.3431 10.9896C8.84285 12.5837 8 14.7457 8 17C8 19.2543 8.84285 21.4163 10.3431 23.0104C11.8434 24.6045 13.8783 25.5 16 25.5C18.1217 25.5 20.1566 24.6045 21.6569 23.0104C23.1571 21.4163 24 19.2543 24 17C24 14.7457 23.1571 12.5837 21.6569 10.9896C20.1566 9.39553 18.1217 8.5 16 8.5ZM26.4 8.075C26.4 7.51142 26.1893 6.97091 25.8142 6.5724C25.4391 6.17388 24.9304 5.95 24.4 5.95C23.8696 5.95 23.3609 6.17388 22.9858 6.5724C22.6107 6.97091 22.4 7.51142 22.4 8.075C22.4 8.63859 22.6107 9.17909 22.9858 9.5776C23.3609 9.97612 23.8696 10.2 24.4 10.2C24.9304 10.2 25.4391 9.97612 25.8142 9.5776C26.1893 9.17909 26.4 8.63859 26.4 8.075ZM16 11.9C17.273 11.9 18.4939 12.4373 19.3941 13.3938C20.2943 14.3502 20.8 15.6474 20.8 17C20.8 18.3526 20.2943 19.6498 19.3941 20.6062C18.4939 21.5627 17.273 22.1 16 22.1C14.727 22.1 13.5061 21.5627 12.6059 20.6062C11.7057 19.6498 11.2 18.3526 11.2 17C11.2 15.6474 11.7057 14.3502 12.6059 13.3938C13.5061 12.4373 14.727 11.9 16 11.9Z" fill="white"/>
</svg>
