<svg width="50" height="896" viewBox="0 0 50 896" fill="none" xmlns="http://www.w3.org/2000/svg">
<g opacity="0.9">
<rect x="5" y="453" width="90" height="90" stroke="url(#paint0_linear)" stroke-width="10"/>
<path d="M15.359 634L50 574L84.641 634H15.359Z" stroke="url(#paint1_linear)" stroke-width="10"/>
<circle r="45" transform="matrix(1 0 0 -1 50 730)" stroke="url(#paint2_linear)" stroke-width="10"/>
<path d="M50 812.18L56.4704 832.094L57.593 835.549H61.2257H82.1644L65.2246 847.857L62.2857 849.992L63.4083 853.447L69.8787 873.361L52.9389 861.053L50 858.918L47.0611 861.053L30.1213 873.361L36.5917 853.447L37.7143 849.992L34.7754 847.857L17.8356 835.549H38.7743H42.407L43.5296 832.094L50 812.18Z" stroke="url(#paint3_linear)" stroke-width="10"/>
</g>
<g opacity="0.9">
<rect x="5" y="5" width="90" height="90" stroke="url(#paint4_linear)" stroke-width="10"/>
<path d="M15.359 186L50 126L84.641 186H15.359Z" stroke="url(#paint5_linear)" stroke-width="10"/>
<circle r="45" transform="matrix(1 0 0 -1 50 282)" stroke="url(#paint6_linear)" stroke-width="10"/>
<path d="M50 364.18L56.4704 384.094L57.593 387.549H61.2257H82.1644L65.2246 399.857L62.2857 401.992L63.4083 405.447L69.8787 425.361L52.9389 413.053L50 410.918L47.0611 413.053L30.1213 425.361L36.5917 405.447L37.7143 401.992L34.7754 399.857L17.8356 387.549H38.7743H42.407L43.5296 384.094L50 364.18Z" stroke="url(#paint7_linear)" stroke-width="10"/>
</g>
<defs>
<linearGradient id="paint0_linear" x1="0" y1="448" x2="0" y2="548" gradientUnits="userSpaceOnUse">
<stop stop-color="#6827F9"/>
<stop offset="1" stop-color="#2F80ED"/>
</linearGradient>
<linearGradient id="paint1_linear" x1="0" y1="564" x2="0" y2="664" gradientUnits="userSpaceOnUse">
<stop stop-color="#6827F9"/>
<stop offset="1" stop-color="#2F80ED"/>
</linearGradient>
<linearGradient id="paint2_linear" x1="0" y1="0" x2="0" y2="100" gradientUnits="userSpaceOnUse">
<stop stop-color="#6827F9"/>
<stop offset="1" stop-color="#2F80ED"/>
</linearGradient>
<linearGradient id="paint3_linear" x1="0" y1="796" x2="0" y2="896" gradientUnits="userSpaceOnUse">
<stop stop-color="#6827F9"/>
<stop offset="1" stop-color="#2F80ED"/>
</linearGradient>
<linearGradient id="paint4_linear" x1="0" y1="0" x2="0" y2="100" gradientUnits="userSpaceOnUse">
<stop stop-color="#6827F9"/>
<stop offset="1" stop-color="#2F80ED"/>
</linearGradient>
<linearGradient id="paint5_linear" x1="0" y1="116" x2="0" y2="216" gradientUnits="userSpaceOnUse">
<stop stop-color="#6827F9"/>
<stop offset="1" stop-color="#2F80ED"/>
</linearGradient>
<linearGradient id="paint6_linear" x1="0" y1="0" x2="0" y2="100" gradientUnits="userSpaceOnUse">
<stop stop-color="#6827F9"/>
<stop offset="1" stop-color="#2F80ED"/>
</linearGradient>
<linearGradient id="paint7_linear" x1="0" y1="348" x2="0" y2="448" gradientUnits="userSpaceOnUse">
<stop stop-color="#6827F9"/>
<stop offset="1" stop-color="#2F80ED"/>
</linearGradient>
</defs>
</svg>
