<svg width="50" height="896" viewBox="0 0 50 896" fill="none" xmlns="http://www.w3.org/2000/svg">
<g opacity="0.9">
<rect x="45" y="891" width="90" height="90" transform="rotate(-180 45 891)" stroke="url(#paint0_linear)" stroke-width="10"/>
<path d="M34.641 710L0 770L-34.641 710H34.641Z" stroke="url(#paint1_linear)" stroke-width="10"/>
<circle r="45" transform="matrix(-1 0 0 1 0 614)" stroke="url(#paint2_linear)" stroke-width="10"/>
<path d="M0 531.82L-6.47042 511.906L-7.59299 508.451H-11.2257H-32.1644L-15.2246 496.143L-12.2857 494.008L-13.4083 490.553L-19.8787 470.639L-2.93893 482.947L0 485.082L2.93893 482.947L19.8787 470.639L13.4083 490.553L12.2857 494.008L15.2246 496.143L32.1644 508.451H11.2257H7.59299L6.47042 511.906L0 531.82Z" stroke="url(#paint3_linear)" stroke-width="10"/>
</g>
<g opacity="0.9">
<rect x="45" y="443" width="90" height="90" transform="rotate(-180 45 443)" stroke="url(#paint4_linear)" stroke-width="10"/>
<path d="M34.641 262L0 322L-34.641 262H34.641Z" stroke="url(#paint5_linear)" stroke-width="10"/>
<circle r="45" transform="matrix(-1 0 0 1 0 166)" stroke="url(#paint6_linear)" stroke-width="10"/>
<path d="M0 83.8197L-6.47042 63.9058L-7.59299 60.4509H-11.2257L-32.1644 60.4509L-15.2246 48.1434L-12.2857 46.0081L-13.4083 42.5532L-19.8787 22.6393L-2.93893 34.9468L0 37.082L2.93893 34.9468L19.8787 22.6393L13.4083 42.5532L12.2857 46.0081L15.2246 48.1434L32.1644 60.4509H11.2257H7.59299L6.47042 63.9058L0 83.8197Z" stroke="url(#paint7_linear)" stroke-width="10"/>
</g>
<defs>
<linearGradient id="paint0_linear" x1="50" y1="896" x2="50" y2="996" gradientUnits="userSpaceOnUse">
<stop stop-color="#6827F9"/>
<stop offset="1" stop-color="#2F80ED"/>
</linearGradient>
<linearGradient id="paint1_linear" x1="50" y1="780" x2="50" y2="680" gradientUnits="userSpaceOnUse">
<stop stop-color="#6827F9"/>
<stop offset="1" stop-color="#2F80ED"/>
</linearGradient>
<linearGradient id="paint2_linear" x1="0" y1="0" x2="0" y2="100" gradientUnits="userSpaceOnUse">
<stop stop-color="#6827F9"/>
<stop offset="1" stop-color="#2F80ED"/>
</linearGradient>
<linearGradient id="paint3_linear" x1="50" y1="548" x2="50" y2="448" gradientUnits="userSpaceOnUse">
<stop stop-color="#6827F9"/>
<stop offset="1" stop-color="#2F80ED"/>
</linearGradient>
<linearGradient id="paint4_linear" x1="50" y1="448" x2="50" y2="548" gradientUnits="userSpaceOnUse">
<stop stop-color="#6827F9"/>
<stop offset="1" stop-color="#2F80ED"/>
</linearGradient>
<linearGradient id="paint5_linear" x1="50" y1="332" x2="50" y2="232" gradientUnits="userSpaceOnUse">
<stop stop-color="#6827F9"/>
<stop offset="1" stop-color="#2F80ED"/>
</linearGradient>
<linearGradient id="paint6_linear" x1="0" y1="0" x2="0" y2="100" gradientUnits="userSpaceOnUse">
<stop stop-color="#6827F9"/>
<stop offset="1" stop-color="#2F80ED"/>
</linearGradient>
<linearGradient id="paint7_linear" x1="50" y1="100" x2="50" y2="0" gradientUnits="userSpaceOnUse">
<stop stop-color="#6827F9"/>
<stop offset="1" stop-color="#2F80ED"/>
</linearGradient>
</defs>
</svg>
