<svg width="33" height="28" viewBox="0 0 33 28" fill="none" xmlns="http://www.w3.org/2000/svg">
<path d="M32.9984 3.32391C31.7624 3.89442 30.4518 4.26911 29.1097 4.43556C30.5243 3.55271 31.583 2.16328 32.0886 0.526179C30.761 1.35063 29.3056 1.92842 27.7887 2.24097C26.7698 1.10326 25.4192 0.348725 23.9469 0.0946679C22.4747 -0.159389 20.9633 0.101267 19.6476 0.836113C18.332 1.57096 17.2858 2.73882 16.6718 4.15814C16.0578 5.57746 15.9103 7.16872 16.2523 8.68453C13.5602 8.54372 10.9266 7.81366 8.52244 6.54174C6.11828 5.26982 3.99731 3.48448 2.29724 1.30164C1.69548 2.38026 1.37924 3.60643 1.38094 4.85455C1.38094 7.30425 2.5757 9.46843 4.39212 10.7355C3.31717 10.7002 2.26589 10.3973 1.32589 9.85194V9.93979C1.32622 11.5713 1.86721 13.1525 2.85714 14.4152C3.84707 15.678 5.22502 16.5446 6.75736 16.8682C5.75948 17.1504 4.71316 17.192 3.69761 16.9899C4.12964 18.3942 4.9717 19.6224 6.10589 20.5024C7.24008 21.3825 8.60961 21.8703 10.0227 21.8977C8.61827 23.0488 7.0102 23.8997 5.29043 24.4018C3.57066 24.9038 1.77292 25.0473 0 24.8238C3.09488 26.9009 6.69762 28.0036 10.3773 28C22.8316 28 29.6424 17.2331 29.6424 7.89556C29.6424 7.59145 29.6343 7.28397 29.6213 6.98325C30.947 5.98338 32.0911 4.74477 33 3.3256L32.9984 3.32391Z" fill="white"/>
</svg>
