<svg width="42" height="32" viewBox="0 0 42 32" fill="none" xmlns="http://www.w3.org/2000/svg">
<path d="M41.5816 6.90475C41.5816 6.90475 41.1715 3.76784 39.9082 2.39045C38.3086 0.577618 36.5203 0.568731 35.7 0.462094C29.8266 -2.54243e-07 21.0082 0 21.0082 0H20.9918C20.9918 0 12.1734 -2.54243e-07 6.3 0.462094C5.47969 0.568731 3.69141 0.577618 2.0918 2.39045C0.828516 3.76784 0.426562 6.90475 0.426562 6.90475C0.426562 6.90475 0 10.5926 0 14.2716V17.7195C0 21.3985 0.418359 25.0864 0.418359 25.0864C0.418359 25.0864 0.828516 28.2233 2.08359 29.6007C3.6832 31.4135 5.7832 31.3513 6.71836 31.5468C10.0816 31.8934 21 32 21 32C21 32 29.8266 31.9822 35.7 31.529C36.5203 31.4224 38.3086 31.4135 39.9082 29.6007C41.1715 28.2233 41.5816 25.0864 41.5816 25.0864C41.5816 25.0864 42 21.4074 42 17.7195V14.2716C42 10.5926 41.5816 6.90475 41.5816 6.90475ZM16.6605 21.905V9.11747L28.0055 15.5335L16.6605 21.905Z" fill="white"/>
</svg>
